<?xml version="1.0" encoding="UTF-8"?>
<!--Generator: Apple Native CoreSVG 175.5-->
<!DOCTYPE svg
PUBLIC "-//W3C//DTD SVG 1.1//EN"
       "http://www.w3.org/Graphics/SVG/1.1/DTD/svg11.dtd">
<svg version="1.1" xmlns="http://www.w3.org/2000/svg" xmlns:xlink="http://www.w3.org/1999/xlink" width="3300" height="2200">
 <!--glyph: "", point size: 100.0, font version: "18.0d12e2", template writer version: "101"-->
 <style>.monochrome-0 {fill:#000000}
.monochrome-1 {fill:#000000;-sfsymbols-clear-behind:true}

.hierarchical-0:secondary {fill:#4D4D4D}
.hierarchical-1:primary {fill:#212121;-sfsymbols-clear-behind:true}

.SFSymbolsPreview212121 {fill:#212121;opacity:1.0}
.SFSymbolsPreview4D4D4D {fill:#4D4D4D;opacity:1.0}
</style>
 <g id="Notes">
  <rect height="2200" id="artboard" style="fill:white;opacity:1" width="3300" x="0" y="0"/>
  <line style="fill:none;stroke:black;opacity:1;stroke-width:0.5;" x1="263" x2="3036" y1="292" y2="292"/>
  <text style="stroke:none;fill:black;font-family:sans-serif;font-size:13;font-weight:bold;" transform="matrix(1 0 0 1 263 322)">Weight/Scale Variations</text>
  <text style="stroke:none;fill:black;font-family:sans-serif;font-size:13;text-anchor:middle;" transform="matrix(1 0 0 1 559.711 322)">Ultralight</text>
  <text style="stroke:none;fill:black;font-family:sans-serif;font-size:13;text-anchor:middle;" transform="matrix(1 0 0 1 856.422 322)">Thin</text>
  <text style="stroke:none;fill:black;font-family:sans-serif;font-size:13;text-anchor:middle;" transform="matrix(1 0 0 1 1153.13 322)">Light</text>
  <text style="stroke:none;fill:black;font-family:sans-serif;font-size:13;text-anchor:middle;" transform="matrix(1 0 0 1 1449.84 322)">Regular</text>
  <text style="stroke:none;fill:black;font-family:sans-serif;font-size:13;text-anchor:middle;" transform="matrix(1 0 0 1 1746.56 322)">Medium</text>
  <text style="stroke:none;fill:black;font-family:sans-serif;font-size:13;text-anchor:middle;" transform="matrix(1 0 0 1 2043.27 322)">Semibold</text>
  <text style="stroke:none;fill:black;font-family:sans-serif;font-size:13;text-anchor:middle;" transform="matrix(1 0 0 1 2339.98 322)">Bold</text>
  <text style="stroke:none;fill:black;font-family:sans-serif;font-size:13;text-anchor:middle;" transform="matrix(1 0 0 1 2636.69 322)">Heavy</text>
  <text style="stroke:none;fill:black;font-family:sans-serif;font-size:13;text-anchor:middle;" transform="matrix(1 0 0 1 2933.4 322)">Black</text>
  <line style="fill:none;stroke:black;opacity:1;stroke-width:0.5;" x1="263" x2="3036" y1="1903" y2="1903"/>
  <g transform="matrix(1 0 0 1 263 1933)">
   <path d="M9.24805 0.830078C13.5547 0.830078 17.1387-2.74414 17.1387-7.05078C17.1387-11.3574 13.5449-14.9316 9.23828-14.9316C4.94141-14.9316 1.36719-11.3574 1.36719-7.05078C1.36719-2.74414 4.95117 0.830078 9.24805 0.830078ZM9.24805-0.654297C5.70312-0.654297 2.87109-3.49609 2.87109-7.05078C2.87109-10.6055 5.69336-13.4473 9.23828-13.4473C12.793-13.4473 15.6445-10.6055 15.6445-7.05078C15.6445-3.49609 12.8027-0.654297 9.24805-0.654297ZM5.6543-7.05078C5.6543-6.62109 5.95703-6.32812 6.40625-6.32812L8.50586-6.32812L8.50586-4.20898C8.50586-3.76953 8.79883-3.4668 9.22852-3.4668C9.67773-3.4668 9.9707-3.76953 9.9707-4.20898L9.9707-6.32812L12.0898-6.32812C12.5293-6.32812 12.832-6.62109 12.832-7.05078C12.832-7.49023 12.5293-7.79297 12.0898-7.79297L9.9707-7.79297L9.9707-9.90234C9.9707-10.3516 9.67773-10.6543 9.22852-10.6543C8.79883-10.6543 8.50586-10.3516 8.50586-9.90234L8.50586-7.79297L6.40625-7.79297C5.95703-7.79297 5.6543-7.49023 5.6543-7.05078Z"/>
  </g>
  <g transform="matrix(1 0 0 1 281.867 1933)">
   <path d="M11.709 2.91016C17.1582 2.91016 21.6699-1.61133 21.6699-7.05078C21.6699-12.5 17.1484-17.0117 11.6992-17.0117C6.25977-17.0117 1.74805-12.5 1.74805-7.05078C1.74805-1.61133 6.26953 2.91016 11.709 2.91016ZM11.709 1.25C7.09961 1.25 3.41797-2.44141 3.41797-7.05078C3.41797-11.6602 7.08984-15.3516 11.6992-15.3516C16.3086-15.3516 20.0098-11.6602 20.0098-7.05078C20.0098-2.44141 16.3184 1.25 11.709 1.25ZM7.17773-7.05078C7.17773-6.57227 7.50977-6.25 8.00781-6.25L10.8789-6.25L10.8789-3.36914C10.8789-2.88086 11.2109-2.53906 11.6895-2.53906C12.1777-2.53906 12.5195-2.87109 12.5195-3.36914L12.5195-6.25L15.4004-6.25C15.8887-6.25 16.2305-6.57227 16.2305-7.05078C16.2305-7.53906 15.8887-7.88086 15.4004-7.88086L12.5195-7.88086L12.5195-10.752C12.5195-11.25 12.1777-11.5918 11.6895-11.5918C11.2109-11.5918 10.8789-11.25 10.8789-10.752L10.8789-7.88086L8.00781-7.88086C7.50977-7.88086 7.17773-7.53906 7.17773-7.05078Z"/>
  </g>
  <g transform="matrix(1 0 0 1 305.646 1933)">
   <path d="M14.9707 5.66406C21.9336 5.66406 27.6953-0.0976562 27.6953-7.05078C27.6953-14.0137 21.9238-19.7754 14.9609-19.7754C8.00781-19.7754 2.25586-14.0137 2.25586-7.05078C2.25586-0.0976562 8.01758 5.66406 14.9707 5.66406ZM14.9707 3.84766C8.93555 3.84766 4.08203-1.01562 4.08203-7.05078C4.08203-13.0957 8.92578-17.9492 14.9609-17.9492C21.0059-17.9492 25.8691-13.0957 25.8691-7.05078C25.8691-1.01562 21.0156 3.84766 14.9707 3.84766ZM9.19922-7.05078C9.19922-6.5332 9.57031-6.17188 10.1172-6.17188L14.0625-6.17188L14.0625-2.2168C14.0625-1.67969 14.4336-1.29883 14.9512-1.29883C15.4883-1.29883 15.8594-1.66992 15.8594-2.2168L15.8594-6.17188L19.8145-6.17188C20.3516-6.17188 20.7324-6.5332 20.7324-7.05078C20.7324-7.59766 20.3613-7.96875 19.8145-7.96875L15.8594-7.96875L15.8594-11.9141C15.8594-12.4609 15.4883-12.8418 14.9512-12.8418C14.4336-12.8418 14.0625-12.4609 14.0625-11.9141L14.0625-7.96875L10.1172-7.96875C9.57031-7.96875 9.19922-7.59766 9.19922-7.05078Z"/>
  </g>
  <text style="stroke:none;fill:black;font-family:sans-serif;font-size:13;font-weight:bold;" transform="matrix(1 0 0 1 263 1953)">Design Variations</text>
  <text style="stroke:none;fill:black;font-family:sans-serif;font-size:13;" transform="matrix(1 0 0 1 263 1971)">Symbols are supported in up to nine weights and three scales.</text>
  <text style="stroke:none;fill:black;font-family:sans-serif;font-size:13;" transform="matrix(1 0 0 1 263 1989)">For optimal layout with text and other symbols, vertically align</text>
  <text style="stroke:none;fill:black;font-family:sans-serif;font-size:13;" transform="matrix(1 0 0 1 263 2007)">symbols with the adjacent text.</text>
  <line style="fill:none;stroke:#00AEEF;stroke-width:0.5;opacity:1.0;" x1="776" x2="776" y1="1919" y2="1933"/>
  <g transform="matrix(1 0 0 1 776 1933)">
   <path d="M3.31055 0.15625C3.82812 0.15625 4.08203-0.0390625 4.26758-0.585938L5.52734-4.0332L11.2891-4.0332L12.5488-0.585938C12.7344-0.0390625 12.9883 0.15625 13.4961 0.15625C14.0137 0.15625 14.3457-0.15625 14.3457-0.644531C14.3457-0.810547 14.3164-0.966797 14.2383-1.17188L9.6582-13.3691C9.43359-13.9648 9.0332-14.2676 8.4082-14.2676C7.80273-14.2676 7.39258-13.9746 7.17773-13.3789L2.59766-1.16211C2.51953-0.957031 2.49023-0.800781 2.49023-0.634766C2.49023-0.146484 2.80273 0.15625 3.31055 0.15625ZM6.00586-5.51758L8.37891-12.0898L8.42773-12.0898L10.8008-5.51758Z"/>
  </g>
  <line style="fill:none;stroke:#00AEEF;stroke-width:0.5;opacity:1.0;" x1="793.197" x2="793.197" y1="1919" y2="1933"/>
  <text style="stroke:none;fill:black;font-family:sans-serif;font-size:13;font-weight:bold;" transform="matrix(1 0 0 1 776 1953)">Margins</text>
  <text style="stroke:none;fill:black;font-family:sans-serif;font-size:13;" transform="matrix(1 0 0 1 776 1971)">Leading and trailing margins on the left and right side of each symbol</text>
  <text style="stroke:none;fill:black;font-family:sans-serif;font-size:13;" transform="matrix(1 0 0 1 776 1989)">can be adjusted by modifying the x-location of the margin guidelines.</text>
  <text style="stroke:none;fill:black;font-family:sans-serif;font-size:13;" transform="matrix(1 0 0 1 776 2007)">Modifications are automatically applied proportionally to all</text>
  <text style="stroke:none;fill:black;font-family:sans-serif;font-size:13;" transform="matrix(1 0 0 1 776 2025)">scales and weights.</text>
  <g transform="matrix(1 0 0 1 1289 1933)">
   <path d="M2.8418 1.86523L4.54102 3.57422C5.40039 4.44336 6.38672 4.38477 7.31445 3.35938L18.0078-8.42773L17.041-9.4043L6.42578 2.27539C6.07422 2.67578 5.74219 2.77344 5.27344 2.30469L4.10156 1.14258C3.63281 0.683594 3.74023 0.341797 4.14062-0.0195312L15.6152-10.8203L14.6387-11.7871L3.04688-0.898438C2.06055 0.0195312 1.98242 0.996094 2.8418 1.86523ZM9.25781-16.3281C8.83789-15.918 8.80859-15.3418 9.04297-14.9512C9.27734-14.5898 9.73633-14.3555 10.3809-14.5215C11.8457-14.8633 13.3691-14.9219 14.7949-13.9844L14.209-12.5293C13.8672-11.6992 14.043-11.1133 14.5801-10.5664L16.875-8.25195C17.3633-7.76367 17.7734-7.74414 18.3398-7.8418L19.4043-8.03711L20.0684-7.36328L20.0293-6.80664C19.9902-6.30859 20.1172-5.92773 20.6055-5.44922L21.3672-4.70703C21.8457-4.22852 22.4609-4.19922 22.9297-4.66797L25.8398-7.58789C26.3086-8.05664 26.2891-8.65234 25.8105-9.13086L25.0391-9.89258C24.5605-10.3711 24.1895-10.5273 23.7109-10.4883L23.1348-10.4395L22.4902-11.0742L22.7344-12.1973C22.8613-12.7637 22.7051-13.2031 22.1191-13.7891L19.9219-15.9766C16.582-19.2969 12.1484-19.2188 9.25781-16.3281ZM10.752-15.957C13.1836-17.7344 16.4746-17.4316 18.7012-15.2051L21.1328-12.793C21.3672-12.5586 21.4062-12.373 21.3379-12.0312L21.0156-10.5469L22.5195-9.0625L23.5059-9.12109C23.7598-9.13086 23.8379-9.11133 24.0332-8.91602L24.6094-8.33984L22.168-5.89844L21.5918-6.47461C21.3965-6.66992 21.3672-6.74805 21.377-7.01172L21.4453-7.98828L19.9512-9.47266L18.4277-9.21875C18.1055-9.15039 17.959-9.17969 17.7148-9.41406L15.7129-11.416C15.459-11.6504 15.4297-11.8164 15.5859-12.1875L16.4648-14.2773C14.9023-15.7324 12.8711-16.3574 10.8398-15.7617C10.6836-15.7227 10.625-15.8496 10.752-15.957Z"/>
  </g>
  <text style="stroke:none;fill:black;font-family:sans-serif;font-size:13;font-weight:bold;" transform="matrix(1 0 0 1 1289 1953)">Exporting</text>
  <text style="stroke:none;fill:black;font-family:sans-serif;font-size:13;" transform="matrix(1 0 0 1 1289 1971)">Symbols should be outlined when exporting to ensure the</text>
  <text style="stroke:none;fill:black;font-family:sans-serif;font-size:13;" transform="matrix(1 0 0 1 1289 1989)">design is preserved when submitting to Xcode.</text>
  <text id="template-version" style="stroke:none;fill:black;font-family:sans-serif;font-size:13;text-anchor:end;" transform="matrix(1 0 0 1 3036 1933)">Template v.4.0</text>
  <text style="stroke:none;fill:black;font-family:sans-serif;font-size:13;text-anchor:end;" transform="matrix(1 0 0 1 3036 1951)">Requires Xcode 14 or greater</text>
  <text id="descriptive-name" style="stroke:none;fill:black;font-family:sans-serif;font-size:13;text-anchor:end;" transform="matrix(1 0 0 1 3036 1969)">Generated from fertility</text>
  <text style="stroke:none;fill:black;font-family:sans-serif;font-size:13;text-anchor:end;" transform="matrix(1 0 0 1 3036 1987)">Typeset at 100 points</text>
  <text style="stroke:none;fill:black;font-family:sans-serif;font-size:13;" transform="matrix(1 0 0 1 263 726)">Small</text>
  <text style="stroke:none;fill:black;font-family:sans-serif;font-size:13;" transform="matrix(1 0 0 1 263 1156)">Medium</text>
  <text style="stroke:none;fill:black;font-family:sans-serif;font-size:13;" transform="matrix(1 0 0 1 263 1586)">Large</text>
 </g>
 <g id="Guides">
  <g id="H-reference" style="fill:#27AAE1;stroke:none;" transform="matrix(1 0 0 1 339 696)">
   <path d="M0.993654 0L3.63775 0L29.3281-67.1323L30.0303-67.1323L30.0303-70.459L28.1226-70.459ZM11.6885-24.4799L46.9815-24.4799L46.2315-26.7285L12.4385-26.7285ZM55.1196 0L57.7637 0L30.6382-70.459L29.4326-70.459L29.4326-67.1323Z"/>
  </g>
  <line id="Baseline-S" style="fill:none;stroke:#27AAE1;opacity:1;stroke-width:0.5;" x1="263" x2="3036" y1="696" y2="696"/>
  <line id="Capline-S" style="fill:none;stroke:#27AAE1;opacity:1;stroke-width:0.5;" x1="263" x2="3036" y1="625.541" y2="625.541"/>
  <g id="H-reference" style="fill:#27AAE1;stroke:none;" transform="matrix(1 0 0 1 339 1126)">
   <path d="M0.993654 0L3.63775 0L29.3281-67.1323L30.0303-67.1323L30.0303-70.459L28.1226-70.459ZM11.6885-24.4799L46.9815-24.4799L46.2315-26.7285L12.4385-26.7285ZM55.1196 0L57.7637 0L30.6382-70.459L29.4326-70.459L29.4326-67.1323Z"/>
  </g>
  <line id="Baseline-M" style="fill:none;stroke:#27AAE1;opacity:1;stroke-width:0.5;" x1="263" x2="3036" y1="1126" y2="1126"/>
  <line id="Capline-M" style="fill:none;stroke:#27AAE1;opacity:1;stroke-width:0.5;" x1="263" x2="3036" y1="1055.54" y2="1055.54"/>
  <g id="H-reference" style="fill:#27AAE1;stroke:none;" transform="matrix(1 0 0 1 339 1556)">
   <path d="M0.993654 0L3.63775 0L29.3281-67.1323L30.0303-67.1323L30.0303-70.459L28.1226-70.459ZM11.6885-24.4799L46.9815-24.4799L46.2315-26.7285L12.4385-26.7285ZM55.1196 0L57.7637 0L30.6382-70.459L29.4326-70.459L29.4326-67.1323Z"/>
  </g>
  <line id="Baseline-L" style="fill:none;stroke:#27AAE1;opacity:1;stroke-width:0.5;" x1="263" x2="3036" y1="1556" y2="1556"/>
  <line id="Capline-L" style="fill:none;stroke:#27AAE1;opacity:1;stroke-width:0.5;" x1="263" x2="3036" y1="1485.54" y2="1485.54"/>
  <line id="left-margin-Ultralight-S" style="fill:none;stroke:#FF3B30;stroke-width:0.5;opacity:1.0;" x1="511.09" x2="511.09" y1="600.785" y2="720.121"/>
  <line id="right-margin-Ultralight-S" style="fill:none;stroke:#00AEEF;stroke-width:0.5;opacity:1.0;" x1="608.332" x2="608.332" y1="600.785" y2="720.121"/>
  <line id="left-margin-Regular-S" style="fill:none;stroke:#00AEEF;stroke-width:0.5;opacity:1.0;" x1="1394.57" x2="1394.57" y1="600.785" y2="720.121"/>
  <line id="right-margin-Regular-S" style="fill:none;stroke:#00AEEF;stroke-width:0.5;opacity:1.0;" x1="1505.12" x2="1505.12" y1="600.785" y2="720.121"/>
  <line id="left-margin-Black-S" style="fill:none;stroke:#00AEEF;stroke-width:0.5;opacity:1.0;" x1="2871.63" x2="2871.63" y1="600.785" y2="720.121"/>
  <line id="right-margin-Black-S" style="fill:none;stroke:#00AEEF;stroke-width:0.5;opacity:1.0;" x1="2995.17" x2="2995.17" y1="600.785" y2="720.121"/>
 </g>
 <g id="Symbols">
  <g id="Black-S" transform="matrix(1 0 0 1 2871.63 696)">
   <path class="monochrome-0 hierarchical-0:secondary SFSymbolsPreview4D4D4D" d="M84.37-68C96.5203-68 106.37-58.1503 106.37-46C106.37-33.8497 96.5203-24 84.37-24C72.2197-24 62.37-33.8497 62.37-46C62.37-58.1503 72.2197-68 84.37-68ZM83.87-80C102.924-80 118.37-64.5538 118.37-45.5C118.37-26.4462 102.924-11 83.87-11C79.2711-11 74.8824-11.8998 70.8703-13.533C72.2361-15.414 73.4994-17.4233 74.6207-19.4887C77.5117-18.4598 80.6255-17.9 83.87-17.9C99.1131-17.9 111.47-30.2569 111.47-45.5C111.47-60.7431 99.1131-73.1 83.87-73.1C68.6269-73.1 56.27-60.7431 56.27-45.5C56.27-44.2964 56.347-43.1108 56.4965-41.9478C54.2102-41.2417 51.9995-40.3998 49.9009-39.4373C49.552-41.4061 49.37-43.4318 49.37-45.5C49.37-64.5538 64.8162-80 83.87-80ZM84.37-61.0526C76.0567-61.0526 69.3174-54.3133 69.3174-46C69.3174-37.6867 76.0567-30.9474 84.37-30.9474C92.6833-30.9474 99.4226-37.6867 99.4226-46C99.4226-54.3133 92.6833-61.0526 84.37-61.0526Z"/>
   <path class="monochrome-1 hierarchical-1:primary SFSymbolsPreview212121" d="M70.3658-25.7906C69.0513-21.7703 66.6149-17.5334 63.7648-14.313C62.323-12.6802 60.5855-11.3227 58.808-10.4249C58.1785-10.1088 56.8111-9.69328 55.9263-9.55605C55.6172-9.50218 55.0335-9.44573 54.6287-9.42785C52.611-9.33738 51.0217-9.68775 48.5503-10.7483C48.0764-10.9529 47.5622-11.1456 47.4138-11.1718C46.8017-11.2797 45.7645-11.0737 44.1182-10.5225C42.8239-10.0877 41.5769-9.74026 41.0696-9.68309C40.4113-9.60153 39.689-9.62689 37.6171-9.80735C34.7418-10.0593 34.0708-10.0502 33.1329-9.75654C32.6329-9.59608 31.9536-9.14212 31.5987-8.7202C31.2856-8.35465 30.7973-7.46538 30.4985-6.74671C30.2851-6.22334 30.2175-5.94839 30.0321-4.89733C29.7781-3.45675 29.7622-3.07707 29.8324-0.329829C29.8938 2.14174 29.8801 2.61744 29.6915 3.68705C29.3165 5.81391 28.4249 7.32694 26.9245 8.38837C26.2772 8.84161 25.6925 9.121 24.8313 9.37715C23.0148 9.91747 21.9743 9.92525 17.3973 9.41783C14.4896 9.09637 13.5044 9.04378 12.3465 9.13922C10.982 9.24925 10.1503 9.66359 9.51759 10.5402C9.05944 11.1861 8.7755 11.8564 8.36183 13.2625C7.77077 15.313 7.48975 16.1113 7.40318 15.9877C7.31042 15.8629 7.41899 14.6326 7.64354 13.1422C7.92369 11.3365 8.09598 10.6847 8.53192 9.87548C9.31254 8.41301 10.9373 7.40539 13.1975 6.98793C14.2118 6.8034 15.3036 6.72179 17.6606 6.65927C21.7149 6.55178 22.8419 6.34251 24.1641 5.46004C24.5692 5.18722 24.8034 4.97989 24.9969 4.71437C25.2488 4.36993 25.2816 4.29283 25.4288 3.56654C25.6352 2.57657 25.6217 2.36382 25.2047 0.607295C24.5278-2.27878 24.2842-4.3681 24.3734-6.50074C24.4216-7.5696 24.7865-9.38587 25.117-10.1755C26.0517-12.4395 27.5717-13.9374 29.9969-15.0015C32.0698-15.911 34.4271-16.3368 38.3508-16.4992C40.2332-16.5816 41.0544-16.7556 41.7151-17.2128C42.4039-17.6843 42.5653-18.1658 42.4197-19.2561C42.1925-20.8963 42.2102-21.5753 42.5129-23.2559C42.7233-24.4491 42.792-24.7303 43.0054-25.2536C44.0692-27.8519 46.1673-30.1339 49.1296-31.8938C51.437-33.2656 54.0579-34.3908 56.841-35.207C58.8914-35.8081 60.5334-36.1178 62.3947-36.2613C66.3104-36.559 68.9912-35.6018 70.2735-33.4377C70.75-32.6333 71.0535-31.3176 71.0584-30.08C71.0651-29.25 70.6388-26.6158 70.3658-25.7906Z"/>
  </g>
  <g id="Regular-S" transform="matrix(1 0 0 1 1394.57 696)">
   <path class="monochrome-0 hierarchical-0:secondary SFSymbolsPreview4D4D4D" d="M71.3091-63.0232C81.8025-63.0232 90.3091-54.5167 90.3091-44.0232C90.3091-33.5298 81.8025-25.0232 71.3091-25.0232C60.8156-25.0232 52.3091-33.5298 52.3091-44.0232C52.3091-54.5167 60.8156-63.0232 71.3091-63.0232ZM71.3091-74.0232C87.8776-74.0232 101.309-60.5918 101.309-44.0232C101.309-27.4547 87.8776-14.0232 71.3091-14.0232C67.31-14.0232 63.4938-14.8057 60.005-16.2259C61.1926-17.8615 62.2912-19.6087 63.2662-21.4048C65.7801-20.5101 68.4877-20.0232 71.3091-20.0232C84.5639-20.0232 95.3091-30.7684 95.3091-44.0232C95.3091-57.2781 84.5639-68.0232 71.3091-68.0232C58.0542-68.0232 47.3091-57.2781 47.3091-44.0232C47.3091-42.9766 47.3761-41.9457 47.506-40.9344C45.5179-40.3204 43.5956-39.5883 41.7707-38.7514C41.4673-40.4634 41.3091-42.2248 41.3091-44.0232C41.3091-60.5918 54.7405-74.0232 71.3091-74.0232ZM71.3091-57.0232C64.1294-57.0232 58.3091-51.203 58.3091-44.0232C58.3091-36.8435 64.1294-31.0232 71.3091-31.0232C78.4888-31.0232 84.3091-36.8435 84.3091-44.0232C84.3091-51.203 78.4888-57.0232 71.3091-57.0232Z"/>
   <path class="monochrome-1 hierarchical-1:primary SFSymbolsPreview212121" d="M59.5158-26.7946C58.3706-23.292 56.2479-19.6007 53.7648-16.795C52.5087-15.3725 50.995-14.1898 49.4464-13.4076C48.8979-13.1322 47.7066-12.7702 46.9358-12.6506C46.6664-12.6037 46.1579-12.5545 45.8053-12.5389C44.0474-12.4601 42.6627-12.7654 40.5096-13.6893C40.0967-13.8676 39.6487-14.0355 39.5194-14.0583C38.9861-14.1523 38.0825-13.9729 36.6482-13.4926C35.5206-13.1139 34.4342-12.8111 33.9922-12.7613C33.4187-12.6903 32.7894-12.7123 30.9843-12.8696C28.4793-13.0891 27.8947-13.0811 27.0776-12.8253C26.6419-12.6855 26.0501-12.29 25.7409-11.9224C25.4681-11.6039 25.0427-10.8292 24.7824-10.2031C24.5964-9.74708 24.5375-9.50754 24.3761-8.59182C24.1548-7.33676 24.1409-7.00596 24.202-4.6125C24.2556-2.4592 24.2436-2.04476 24.0793-1.11289C23.7525 0.740085 22.9758 2.05828 21.6686 2.98303C21.1047 3.3779 20.5952 3.62131 19.845 3.84448C18.2624 4.31522 17.3559 4.322 13.3683 3.87992C10.835 3.59986 9.97668 3.55403 8.96785 3.63719C7.77905 3.73304 7.05446 4.09403 6.50325 4.85772C6.1041 5.42049 5.85672 6.00448 5.49632 7.22947C4.98138 9.01593 4.73655 9.71145 4.66112 9.60373C4.58031 9.49506 4.6749 8.42315 4.87053 7.12468C5.1146 5.55149 5.26471 4.98368 5.64451 4.27864C6.32461 3.00449 7.74017 2.12663 9.70933 1.76293C10.593 1.60216 11.5442 1.53106 13.5977 1.47659C17.1299 1.38294 18.1118 1.20062 19.2637 0.431783C19.6166 0.194098 19.8207 0.0134654 19.9892-0.217857C20.2087-0.517944 20.2372-0.585119 20.3655-1.21788C20.5453-2.08037 20.5336-2.26573 20.1703-3.79605C19.5806-6.31048 19.3683-8.13075 19.446-9.98876C19.488-10.92 19.8059-12.5024 20.0939-13.1903C20.9082-15.1628 22.2324-16.4677 24.3454-17.3948C26.1513-18.1872 28.2051-18.5582 31.6235-18.6997C33.2635-18.7715 33.9789-18.9231 34.5546-19.3214C35.1547-19.7321 35.2953-20.1517 35.1684-21.1016C34.9705-22.5305 34.9859-23.1221 35.2497-24.5863C35.433-25.6259 35.4928-25.8708 35.6788-26.3268C36.6055-28.5905 38.4335-30.5786 41.0143-32.1119C43.0245-33.307 45.3079-34.2873 47.7327-34.9984C49.519-35.5221 50.9495-35.7919 52.5711-35.917C55.9826-36.1763 58.3182-35.3424 59.4354-33.457C59.8505-32.7561 60.115-31.6098 60.1192-30.5316C60.125-29.8085 59.7537-27.5136 59.5158-26.7946Z"/>
  </g>
  <g id="Ultralight-S" transform="matrix(1 0 0 1 511.09 696)">
   <path class="monochrome-0 hierarchical-0:secondary SFSymbolsPreview4D4D4D" d="M65.5868-62C76.0803-62 84.5868-53.4934 84.5868-43C84.5868-32.5066 76.0803-24 65.5868-24C55.0934-24 46.5868-32.5066 46.5868-43C46.5868-53.4934 55.0934-62 65.5868-62ZM65.5868-73C82.1554-73 95.5868-59.5685 95.5868-43C95.5868-26.4315 82.1554-13 65.5868-13C61.5878-13 57.7715-13.7825 54.2828-15.2026C55.9451-16.6213 56.3579-17 57.5439-18.38C60.0579-17.4853 62.7655-17 65.5868-17C80.0434-17 91.59-28.4553 91.59-43C91.59-57.5447 80.0434-69 65.5868-69C51.1303-69 39.59-57.5254 39.59-43C39.59-41.9534 39.6501-40.9224 39.78-39.9112C37.8734-39.1283 37.674-38.9085 36.0485-37.7281C35.7451-39.4401 35.5868-41.2016 35.5868-43C35.5868-59.5685 49.0183-73 65.5868-73ZM65.5868-58C56.1527-58 50.59-51.2388 50.59-43C50.59-34.7612 57.1514-28 65.5868-28C74.0223-28 80.59-34.7612 80.59-43C80.59-51.2388 75.021-58 65.5868-58Z"/>
   <path class="monochrome-1 hierarchical-1:primary SFSymbolsPreview212121" d="M53.7936-25.7713C52.6484-22.2687 50.5257-18.5775 48.0426-15.7718C46.7865-14.3492 45.2728-13.1666 43.7241-12.3844C43.1757-12.1089 41.9844-11.7469 41.2135-11.6274C40.9442-11.5804 40.4357-11.5313 40.083-11.5157C38.3252-11.4369 36.9405-11.7421 34.7874-12.6661C34.3745-12.8444 33.9265-13.0123 33.7972-13.0351C33.2639-13.1291 32.3603-12.9496 30.926-12.4694C29.7984-12.0906 28.7119-11.7879 28.2699-11.7381C27.6965-11.667 27.0672-11.6891 25.2621-11.8463C22.7571-12.0659 22.1725-12.0579 21.3554-11.802C20.9197-11.6623 20.3279-11.2667 20.0187-10.8992C19.7459-10.5807 19.3205-9.80593 19.0601-9.1798C18.8742-8.72383 18.8153-8.48429 18.6539-7.56857C18.4326-6.31351 18.4187-5.98271 18.4798-3.58925C18.5334-1.43595 18.5214-1.02151 18.3571-0.0896404C18.0303 1.76334 17.2536 3.08153 15.9464 4.00628C15.3825 4.40115 14.873 4.64456 14.1228 4.86773C12.5402 5.33847 11.6337 5.34525 7.64606 4.90317C5.11282 4.62311 4.25447 4.57728 3.24563 4.66044C2.05683 4.75629 1.33225 5.11728 0.781038 5.88097C0.381887 6.44374 0.13451 7.02773-0.225893 8.25272C-0.74084 10.0392-0.985667 10.7347-1.06109 10.627C-1.1419 10.5183-1.04731 9.4464-0.851683 8.14793C-0.607612 6.57474-0.457505 6.00693-0.0777021 5.30189C0.602394 4.02774 2.01795 3.14988 3.98711 2.78618C4.87078 2.62541 5.82195 2.55431 7.87544 2.49984C11.4077 2.40619 12.3895 2.22387 13.5415 1.45503C13.8944 1.21735 14.0985 1.03672 14.267 0.805393C14.4865 0.505306 14.515 0.438131 14.6433-0.194634C14.8231-1.05712 14.8114-1.24248 14.448-2.7728C13.8584-5.28723 13.6461-7.1075 13.7238-8.96551C13.7658-9.89673 14.0837-11.4791 14.3716-12.167C15.186-14.1395 16.5102-15.4445 18.6232-16.3716C20.4291-17.1639 22.4828-17.5349 25.9013-17.6764C27.5413-17.7483 28.2567-17.8998 28.8324-18.2982C29.4324-18.7089 29.5731-19.1284 29.4462-20.0783C29.2483-21.5073 29.2637-22.0988 29.5275-23.563C29.7108-24.6026 29.7706-24.8476 29.9565-25.3035C30.8833-27.5672 32.7113-29.5554 35.2921-31.0887C37.3023-32.2838 39.5857-33.2641 42.0105-33.9751C43.7968-34.4988 45.2273-34.7686 46.8489-34.8937C50.2604-35.1531 52.596-34.3191 53.7132-32.4337C54.1283-31.7329 54.3927-30.5866 54.397-29.5083C54.4028-28.7853 54.0315-26.4903 53.7936-25.7713Z"/>
  </g>
 </g>
</svg>
