<?xml version="1.0" encoding="UTF-8"?>
<!--Generator: Apple Native CoreSVG 175.5-->
<!DOCTYPE svg
PUBLIC "-//W3C//DTD SVG 1.1//EN"
       "http://www.w3.org/Graphics/SVG/1.1/DTD/svg11.dtd">
<svg version="1.1" xmlns="http://www.w3.org/2000/svg" xmlns:xlink="http://www.w3.org/1999/xlink" width="3300" height="2200">
 <!--glyph: "", point size: 100.0, font version: "18.0d12e2", template writer version: "101"-->
 <style>.monochrome-0 {fill:#000000}
.monochrome-1 {fill:#000000}

.multicolor-0:black {fill:#000000}
.multicolor-1:systemGreenColor {fill:#28CD41}

.hierarchical-0:primary {fill:#212121}
.hierarchical-1:secondary {fill:#4D4D4D}

.SFSymbolsPreview000000 {fill:#000000;opacity:1.0}
.SFSymbolsPreview28CD41 {fill:#28CD41;opacity:1.0}
</style>
 <g id="Notes">
  <rect height="2200" id="artboard" style="fill:white;opacity:1" width="3300" x="0" y="0"/>
  <line style="fill:none;stroke:black;opacity:1;stroke-width:0.5;" x1="263" x2="3036" y1="292" y2="292"/>
  <text style="stroke:none;fill:black;font-family:sans-serif;font-size:13;font-weight:bold;" transform="matrix(1 0 0 1 263 322)">Weight/Scale Variations</text>
  <text style="stroke:none;fill:black;font-family:sans-serif;font-size:13;text-anchor:middle;" transform="matrix(1 0 0 1 559.711 322)">Ultralight</text>
  <text style="stroke:none;fill:black;font-family:sans-serif;font-size:13;text-anchor:middle;" transform="matrix(1 0 0 1 856.422 322)">Thin</text>
  <text style="stroke:none;fill:black;font-family:sans-serif;font-size:13;text-anchor:middle;" transform="matrix(1 0 0 1 1153.13 322)">Light</text>
  <text style="stroke:none;fill:black;font-family:sans-serif;font-size:13;text-anchor:middle;" transform="matrix(1 0 0 1 1449.84 322)">Regular</text>
  <text style="stroke:none;fill:black;font-family:sans-serif;font-size:13;text-anchor:middle;" transform="matrix(1 0 0 1 1746.56 322)">Medium</text>
  <text style="stroke:none;fill:black;font-family:sans-serif;font-size:13;text-anchor:middle;" transform="matrix(1 0 0 1 2043.27 322)">Semibold</text>
  <text style="stroke:none;fill:black;font-family:sans-serif;font-size:13;text-anchor:middle;" transform="matrix(1 0 0 1 2339.98 322)">Bold</text>
  <text style="stroke:none;fill:black;font-family:sans-serif;font-size:13;text-anchor:middle;" transform="matrix(1 0 0 1 2636.69 322)">Heavy</text>
  <text style="stroke:none;fill:black;font-family:sans-serif;font-size:13;text-anchor:middle;" transform="matrix(1 0 0 1 2933.4 322)">Black</text>
  <line style="fill:none;stroke:black;opacity:1;stroke-width:0.5;" x1="263" x2="3036" y1="1903" y2="1903"/>
  <g transform="matrix(1 0 0 1 263 1933)">
   <path d="M9.24805 0.830078C13.5547 0.830078 17.1387-2.74414 17.1387-7.05078C17.1387-11.3574 13.5449-14.9316 9.23828-14.9316C4.94141-14.9316 1.36719-11.3574 1.36719-7.05078C1.36719-2.74414 4.95117 0.830078 9.24805 0.830078ZM9.24805-0.654297C5.70312-0.654297 2.87109-3.49609 2.87109-7.05078C2.87109-10.6055 5.69336-13.4473 9.23828-13.4473C12.793-13.4473 15.6445-10.6055 15.6445-7.05078C15.6445-3.49609 12.8027-0.654297 9.24805-0.654297ZM5.6543-7.05078C5.6543-6.62109 5.95703-6.32812 6.40625-6.32812L8.50586-6.32812L8.50586-4.20898C8.50586-3.76953 8.79883-3.4668 9.22852-3.4668C9.67773-3.4668 9.9707-3.76953 9.9707-4.20898L9.9707-6.32812L12.0898-6.32812C12.5293-6.32812 12.832-6.62109 12.832-7.05078C12.832-7.49023 12.5293-7.79297 12.0898-7.79297L9.9707-7.79297L9.9707-9.90234C9.9707-10.3516 9.67773-10.6543 9.22852-10.6543C8.79883-10.6543 8.50586-10.3516 8.50586-9.90234L8.50586-7.79297L6.40625-7.79297C5.95703-7.79297 5.6543-7.49023 5.6543-7.05078Z"/>
  </g>
  <g transform="matrix(1 0 0 1 281.867 1933)">
   <path d="M11.709 2.91016C17.1582 2.91016 21.6699-1.61133 21.6699-7.05078C21.6699-12.5 17.1484-17.0117 11.6992-17.0117C6.25977-17.0117 1.74805-12.5 1.74805-7.05078C1.74805-1.61133 6.26953 2.91016 11.709 2.91016ZM11.709 1.25C7.09961 1.25 3.41797-2.44141 3.41797-7.05078C3.41797-11.6602 7.08984-15.3516 11.6992-15.3516C16.3086-15.3516 20.0098-11.6602 20.0098-7.05078C20.0098-2.44141 16.3184 1.25 11.709 1.25ZM7.17773-7.05078C7.17773-6.57227 7.50977-6.25 8.00781-6.25L10.8789-6.25L10.8789-3.36914C10.8789-2.88086 11.2109-2.53906 11.6895-2.53906C12.1777-2.53906 12.5195-2.87109 12.5195-3.36914L12.5195-6.25L15.4004-6.25C15.8887-6.25 16.2305-6.57227 16.2305-7.05078C16.2305-7.53906 15.8887-7.88086 15.4004-7.88086L12.5195-7.88086L12.5195-10.752C12.5195-11.25 12.1777-11.5918 11.6895-11.5918C11.2109-11.5918 10.8789-11.25 10.8789-10.752L10.8789-7.88086L8.00781-7.88086C7.50977-7.88086 7.17773-7.53906 7.17773-7.05078Z"/>
  </g>
  <g transform="matrix(1 0 0 1 305.646 1933)">
   <path d="M14.9707 5.66406C21.9336 5.66406 27.6953-0.0976562 27.6953-7.05078C27.6953-14.0137 21.9238-19.7754 14.9609-19.7754C8.00781-19.7754 2.25586-14.0137 2.25586-7.05078C2.25586-0.0976562 8.01758 5.66406 14.9707 5.66406ZM14.9707 3.84766C8.93555 3.84766 4.08203-1.01562 4.08203-7.05078C4.08203-13.0957 8.92578-17.9492 14.9609-17.9492C21.0059-17.9492 25.8691-13.0957 25.8691-7.05078C25.8691-1.01562 21.0156 3.84766 14.9707 3.84766ZM9.19922-7.05078C9.19922-6.5332 9.57031-6.17188 10.1172-6.17188L14.0625-6.17188L14.0625-2.2168C14.0625-1.67969 14.4336-1.29883 14.9512-1.29883C15.4883-1.29883 15.8594-1.66992 15.8594-2.2168L15.8594-6.17188L19.8145-6.17188C20.3516-6.17188 20.7324-6.5332 20.7324-7.05078C20.7324-7.59766 20.3613-7.96875 19.8145-7.96875L15.8594-7.96875L15.8594-11.9141C15.8594-12.4609 15.4883-12.8418 14.9512-12.8418C14.4336-12.8418 14.0625-12.4609 14.0625-11.9141L14.0625-7.96875L10.1172-7.96875C9.57031-7.96875 9.19922-7.59766 9.19922-7.05078Z"/>
  </g>
  <text style="stroke:none;fill:black;font-family:sans-serif;font-size:13;font-weight:bold;" transform="matrix(1 0 0 1 263 1953)">Design Variations</text>
  <text style="stroke:none;fill:black;font-family:sans-serif;font-size:13;" transform="matrix(1 0 0 1 263 1971)">Symbols are supported in up to nine weights and three scales.</text>
  <text style="stroke:none;fill:black;font-family:sans-serif;font-size:13;" transform="matrix(1 0 0 1 263 1989)">For optimal layout with text and other symbols, vertically align</text>
  <text style="stroke:none;fill:black;font-family:sans-serif;font-size:13;" transform="matrix(1 0 0 1 263 2007)">symbols with the adjacent text.</text>
  <line style="fill:none;stroke:#00AEEF;stroke-width:0.5;opacity:1.0;" x1="776" x2="776" y1="1919" y2="1933"/>
  <g transform="matrix(1 0 0 1 776 1933)">
   <path d="M3.31055 0.15625C3.82812 0.15625 4.08203-0.0390625 4.26758-0.585938L5.52734-4.0332L11.2891-4.0332L12.5488-0.585938C12.7344-0.0390625 12.9883 0.15625 13.4961 0.15625C14.0137 0.15625 14.3457-0.15625 14.3457-0.644531C14.3457-0.810547 14.3164-0.966797 14.2383-1.17188L9.6582-13.3691C9.43359-13.9648 9.0332-14.2676 8.4082-14.2676C7.80273-14.2676 7.39258-13.9746 7.17773-13.3789L2.59766-1.16211C2.51953-0.957031 2.49023-0.800781 2.49023-0.634766C2.49023-0.146484 2.80273 0.15625 3.31055 0.15625ZM6.00586-5.51758L8.37891-12.0898L8.42773-12.0898L10.8008-5.51758Z"/>
  </g>
  <line style="fill:none;stroke:#00AEEF;stroke-width:0.5;opacity:1.0;" x1="793.197" x2="793.197" y1="1919" y2="1933"/>
  <text style="stroke:none;fill:black;font-family:sans-serif;font-size:13;font-weight:bold;" transform="matrix(1 0 0 1 776 1953)">Margins</text>
  <text style="stroke:none;fill:black;font-family:sans-serif;font-size:13;" transform="matrix(1 0 0 1 776 1971)">Leading and trailing margins on the left and right side of each symbol</text>
  <text style="stroke:none;fill:black;font-family:sans-serif;font-size:13;" transform="matrix(1 0 0 1 776 1989)">can be adjusted by modifying the x-location of the margin guidelines.</text>
  <text style="stroke:none;fill:black;font-family:sans-serif;font-size:13;" transform="matrix(1 0 0 1 776 2007)">Modifications are automatically applied proportionally to all</text>
  <text style="stroke:none;fill:black;font-family:sans-serif;font-size:13;" transform="matrix(1 0 0 1 776 2025)">scales and weights.</text>
  <g transform="matrix(1 0 0 1 1289 1933)">
   <path d="M2.8418 1.86523L4.54102 3.57422C5.40039 4.44336 6.38672 4.38477 7.31445 3.35938L18.0078-8.42773L17.041-9.4043L6.42578 2.27539C6.07422 2.67578 5.74219 2.77344 5.27344 2.30469L4.10156 1.14258C3.63281 0.683594 3.74023 0.341797 4.14062-0.0195312L15.6152-10.8203L14.6387-11.7871L3.04688-0.898438C2.06055 0.0195312 1.98242 0.996094 2.8418 1.86523ZM9.25781-16.3281C8.83789-15.918 8.80859-15.3418 9.04297-14.9512C9.27734-14.5898 9.73633-14.3555 10.3809-14.5215C11.8457-14.8633 13.3691-14.9219 14.7949-13.9844L14.209-12.5293C13.8672-11.6992 14.043-11.1133 14.5801-10.5664L16.875-8.25195C17.3633-7.76367 17.7734-7.74414 18.3398-7.8418L19.4043-8.03711L20.0684-7.36328L20.0293-6.80664C19.9902-6.30859 20.1172-5.92773 20.6055-5.44922L21.3672-4.70703C21.8457-4.22852 22.4609-4.19922 22.9297-4.66797L25.8398-7.58789C26.3086-8.05664 26.2891-8.65234 25.8105-9.13086L25.0391-9.89258C24.5605-10.3711 24.1895-10.5273 23.7109-10.4883L23.1348-10.4395L22.4902-11.0742L22.7344-12.1973C22.8613-12.7637 22.7051-13.2031 22.1191-13.7891L19.9219-15.9766C16.582-19.2969 12.1484-19.2188 9.25781-16.3281ZM10.752-15.957C13.1836-17.7344 16.4746-17.4316 18.7012-15.2051L21.1328-12.793C21.3672-12.5586 21.4062-12.373 21.3379-12.0312L21.0156-10.5469L22.5195-9.0625L23.5059-9.12109C23.7598-9.13086 23.8379-9.11133 24.0332-8.91602L24.6094-8.33984L22.168-5.89844L21.5918-6.47461C21.3965-6.66992 21.3672-6.74805 21.377-7.01172L21.4453-7.98828L19.9512-9.47266L18.4277-9.21875C18.1055-9.15039 17.959-9.17969 17.7148-9.41406L15.7129-11.416C15.459-11.6504 15.4297-11.8164 15.5859-12.1875L16.4648-14.2773C14.9023-15.7324 12.8711-16.3574 10.8398-15.7617C10.6836-15.7227 10.625-15.8496 10.752-15.957Z"/>
  </g>
  <text style="stroke:none;fill:black;font-family:sans-serif;font-size:13;font-weight:bold;" transform="matrix(1 0 0 1 1289 1953)">Exporting</text>
  <text style="stroke:none;fill:black;font-family:sans-serif;font-size:13;" transform="matrix(1 0 0 1 1289 1971)">Symbols should be outlined when exporting to ensure the</text>
  <text style="stroke:none;fill:black;font-family:sans-serif;font-size:13;" transform="matrix(1 0 0 1 1289 1989)">design is preserved when submitting to Xcode.</text>
  <text id="template-version" style="stroke:none;fill:black;font-family:sans-serif;font-size:13;text-anchor:end;" transform="matrix(1 0 0 1 3036 1933)">Template v.4.0</text>
  <text style="stroke:none;fill:black;font-family:sans-serif;font-size:13;text-anchor:end;" transform="matrix(1 0 0 1 3036 1951)">Requires Xcode 14 or greater</text>
  <text id="descriptive-name" style="stroke:none;fill:black;font-family:sans-serif;font-size:13;text-anchor:end;" transform="matrix(1 0 0 1 3036 1969)">Generated from tractor.fill</text>
  <text style="stroke:none;fill:black;font-family:sans-serif;font-size:13;text-anchor:end;" transform="matrix(1 0 0 1 3036 1987)">Typeset at 100 points</text>
  <text style="stroke:none;fill:black;font-family:sans-serif;font-size:13;" transform="matrix(1 0 0 1 263 726)">Small</text>
  <text style="stroke:none;fill:black;font-family:sans-serif;font-size:13;" transform="matrix(1 0 0 1 263 1156)">Medium</text>
  <text style="stroke:none;fill:black;font-family:sans-serif;font-size:13;" transform="matrix(1 0 0 1 263 1586)">Large</text>
 </g>
 <g id="Guides">
  <g id="H-reference" style="fill:#27AAE1;stroke:none;" transform="matrix(1 0 0 1 339 696)">
   <path d="M0.993654 0L3.63775 0L29.3281-67.1323L30.0303-67.1323L30.0303-70.459L28.1226-70.459ZM11.6885-24.4799L46.9815-24.4799L46.2315-26.7285L12.4385-26.7285ZM55.1196 0L57.7637 0L30.6382-70.459L29.4326-70.459L29.4326-67.1323Z"/>
  </g>
  <line id="Baseline-S" style="fill:none;stroke:#27AAE1;opacity:1;stroke-width:0.5;" x1="263" x2="3036" y1="696" y2="696"/>
  <line id="Capline-S" style="fill:none;stroke:#27AAE1;opacity:1;stroke-width:0.5;" x1="263" x2="3036" y1="625.541" y2="625.541"/>
  <g id="H-reference" style="fill:#27AAE1;stroke:none;" transform="matrix(1 0 0 1 339 1126)">
   <path d="M0.993654 0L3.63775 0L29.3281-67.1323L30.0303-67.1323L30.0303-70.459L28.1226-70.459ZM11.6885-24.4799L46.9815-24.4799L46.2315-26.7285L12.4385-26.7285ZM55.1196 0L57.7637 0L30.6382-70.459L29.4326-70.459L29.4326-67.1323Z"/>
  </g>
  <line id="Baseline-M" style="fill:none;stroke:#27AAE1;opacity:1;stroke-width:0.5;" x1="263" x2="3036" y1="1126" y2="1126"/>
  <line id="Capline-M" style="fill:none;stroke:#27AAE1;opacity:1;stroke-width:0.5;" x1="263" x2="3036" y1="1055.54" y2="1055.54"/>
  <g id="H-reference" style="fill:#27AAE1;stroke:none;" transform="matrix(1 0 0 1 339 1556)">
   <path d="M0.993654 0L3.63775 0L29.3281-67.1323L30.0303-67.1323L30.0303-70.459L28.1226-70.459ZM11.6885-24.4799L46.9815-24.4799L46.2315-26.7285L12.4385-26.7285ZM55.1196 0L57.7637 0L30.6382-70.459L29.4326-70.459L29.4326-67.1323Z"/>
  </g>
  <line id="Baseline-L" style="fill:none;stroke:#27AAE1;opacity:1;stroke-width:0.5;" x1="263" x2="3036" y1="1556" y2="1556"/>
  <line id="Capline-L" style="fill:none;stroke:#27AAE1;opacity:1;stroke-width:0.5;" x1="263" x2="3036" y1="1485.54" y2="1485.54"/>
  <line id="left-margin-Ultralight-S" style="fill:none;stroke:#00AEEF;stroke-width:0.5;opacity:1.0;" x1="496.224" x2="496.224" y1="600.785" y2="720.121"/>
  <line id="right-margin-Ultralight-S" style="fill:none;stroke:#00AEEF;stroke-width:0.5;opacity:1.0;" x1="623.198" x2="623.198" y1="600.785" y2="720.121"/>
  <line id="left-margin-Regular-S" style="fill:none;stroke:#00AEEF;stroke-width:0.5;opacity:1.0;" x1="1383.95" x2="1383.95" y1="600.785" y2="720.121"/>
  <line id="right-margin-Regular-S" style="fill:none;stroke:#00AEEF;stroke-width:0.5;opacity:1.0;" x1="1515.74" x2="1515.74" y1="600.785" y2="720.121"/>
  <line id="left-margin-Black-S" style="fill:none;stroke:#00AEEF;stroke-width:0.5;opacity:1.0;" x1="2857.69" x2="2857.69" y1="600.785" y2="720.121"/>
  <line id="right-margin-Black-S" style="fill:none;stroke:#00AEEF;stroke-width:0.5;opacity:1.0;" x1="3009.11" x2="3009.11" y1="600.785" y2="720.121"/>
 </g>
 <g id="Symbols">
  <g id="Black-S" transform="matrix(1 0 0 1 2857.69 696)">
   <path class="monochrome-0 multicolor-0:black hierarchical-0:primary SFSymbolsPreview000000" d="M34.71-45.9742C50.9472-45.9742 64.11-32.7632 64.11-16.4666C64.11-0.169996 50.9472 13.041 34.71 13.041C18.4728 13.041 5.31-0.169996 5.31-16.4666C5.31-32.7632 18.4728-45.9742 34.71-45.9742ZM121.71-30.3171C133.639-30.3171 143.31-20.611 143.31-8.63804C143.31 3.33496 133.639 13.041 121.71 13.041C109.781 13.041 100.11 3.33496 100.11-8.63804C100.11-20.611 109.781-30.3171 121.71-30.3171ZM34.71-33.9303C25.1002-33.9303 17.31-26.1115 17.31-16.4666C17.31-6.82167 25.1002 0.997087 34.71 0.997087C44.3198 0.997087 52.11-6.82167 52.11-16.4666C52.11-26.1115 44.3198-33.9303 34.71-33.9303ZM121.71-19.4776C115.745-19.4776 110.91-14.6245 110.91-8.63804C110.91-2.65154 115.745 2.20148 121.71 2.20148C127.675 2.20148 132.51-2.65154 132.51-8.63804C132.51-14.6245 127.675-19.4776 121.71-19.4776Z"/>
   <path class="monochrome-1 multicolor-1:systemGreenColor hierarchical-1:secondary SFSymbolsPreview28CD41" d="M48.8513-85.8955C57.6163-85.6456 66.3481-84.6933 75.0465-83.0385C76.4447-82.772 77.5553-81.704 77.8806-80.3135L83.9513-54.2803L126.173-46.4583C127.726-46.1705 128.911-44.9 129.095-43.3254L130.269-33.2645C127.602-34.2002 124.736-34.7089 121.751-34.7089C107.502-34.7089 95.9513-23.1156 95.9513-8.81449C95.9513-8.23018 95.9705-7.6504 96.0085-7.07569L67.6143-7.07569C68.4583-10.0603 68.91-13.2105 68.91-16.4666C68.91-35.4238 53.5981-50.7917 34.71-50.7917C26.2853-50.7917 18.5721-47.7344 12.6118-42.6649L12.0711-43.0928C11.198-43.7851 10.9136-44.9889 11.3839-46.001L13.9515-51.5265C14.5818-52.883 15.8045-53.8684 17.2603-54.1931L20.3513-54.8825L24.3108-82.4168C24.4574-83.4323 25.2287-84.2432 26.2326-84.4372C32.5609-85.6589 40.1004-86.145 48.8513-85.8955ZM48.8513-79.2714C43.4021-79.2714 38.0327-79.0311 32.7431-78.5505C31.6369-78.4477 30.7454-77.5968 30.5878-76.4931L27.7377-56.209C30.0022-56.6065 32.332-56.8137 34.71-56.8137C52.1097-56.8137 66.9275-45.7189 72.5235-30.1935L80.9656-30.1924C81.6283-30.1924 82.1656-30.7317 82.1656-31.3968C82.1656-31.482 82.1566-31.5669 82.1387-31.6502L72.6186-76.0527C72.4013-77.0757 71.5506-77.8405 70.5137-77.9458C63.1145-78.6959 56.7935-79.1276 51.5509-79.2411L50.1479-79.2641Z"/>
  </g>
  <g id="Regular-S" transform="matrix(1 0 0 1 1383.95 696)">
   <path class="monochrome-0 multicolor-0:black hierarchical-0:primary SFSymbolsPreview000000" d="M32.2656-41.8535C45.7966-41.8535 56.7656-30.8845 56.7656-17.3535C56.7656-3.82252 45.7966 7.1465 32.2656 7.1465C18.7346 7.1465 7.76562-3.82252 7.76562-17.3535C7.76562-30.8845 18.7346-41.8535 32.2656-41.8535ZM104.766-28.8535C114.707-28.8535 122.766-20.7946 122.766-10.8535C122.766-0.912374 114.707 7.1465 104.766 7.1465C94.8245 7.1465 86.7656-0.912374 86.7656-10.8535C86.7656-20.7946 94.8245-28.8535 104.766-28.8535ZM32.2656-31.8535C24.2575-31.8535 17.7656-25.3616 17.7656-17.3535C17.7656-9.34537 24.2575-2.8535 32.2656-2.8535C40.2737-2.8535 46.7656-9.34537 46.7656-17.3535C46.7656-25.3616 40.2737-31.8535 32.2656-31.8535ZM104.766-19.8535C99.7951-19.8535 95.7656-15.8241 95.7656-10.8535C95.7656-5.88294 99.7951-1.8535 104.766-1.8535C109.736-1.8535 113.766-5.88294 113.766-10.8535C113.766-15.8241 109.736-19.8535 104.766-19.8535Z"/>
   <path class="monochrome-1 multicolor-1:systemGreenColor hierarchical-1:secondary SFSymbolsPreview28CD41" d="M44.05-75C51.3542-74.7925 58.6307-74.0018 65.8794-72.6278C67.0445-72.4066 67.97-71.5198 68.2411-70.3653L73.3-48.75L108.484-42.2554C109.779-42.0165 110.766-40.9616 110.919-39.6542L111.898-31.3008C109.676-32.0777 107.287-32.5 104.8-32.5C92.9259-32.5 83.3-22.8741 83.3-11C83.3-10.5149 83.3161-10.0335 83.3477-9.55628L59.6859-9.55628C60.3892-12.0344 60.7656-14.65 60.7656-17.3535C60.7656-33.0936 48.0057-45.8535 32.2656-45.8535C25.2451-45.8535 18.8174-43.315 13.8504-39.1058L13.3999-39.4611C12.6723-40.0359 12.4353-41.0355 12.8272-41.8758L14.9668-46.4636C15.4921-47.5899 16.5111-48.408 17.7242-48.6776L20.3-49.25L23.5996-72.1117C23.7218-72.9548 24.3646-73.6281 25.2012-73.7891C30.4747-74.8035 36.7576-75.2072 44.05-75ZM44.05-69.5C39.509-69.5 35.0345-69.3005 30.6265-68.9015C29.7047-68.8161 28.9618-68.1096 28.8305-67.1932L26.4553-50.3514C28.3425-50.6814 30.284-50.8535 32.2656-50.8535C46.7654-50.8535 59.1135-41.6416 63.7769-28.7509L70.8119-28.75C71.3642-28.75 71.8119-29.1977 71.8119-29.75C71.8119-29.8207 71.8044-29.8912 71.7895-29.9604L63.8561-66.8276C63.675-67.677 62.9661-68.312 62.1021-68.3994C55.936-69.0222 50.6686-69.3806 46.2997-69.4748L45.1305-69.494Z"/>
  </g>
  <g id="Ultralight-S" transform="matrix(1 0 0 1 496.224 696)">
   <path class="monochrome-0 multicolor-0:black hierarchical-0:primary SFSymbolsPreview000000" d="M30.276-44.8008C43.807-44.8008 54.776-33.8318 54.776-20.3008C54.776-6.76982 43.807 4.1992 30.276 4.1992C16.745 4.1992 5.776-6.76982 5.776-20.3008C5.776-33.8318 16.745-44.8008 30.276-44.8008ZM102.776-31.8008C112.717-31.8008 120.776-23.7419 120.776-13.8008C120.776-3.85967 112.717 4.1992 102.776 4.1992C92.8349 4.1992 84.776-3.85967 84.776-13.8008C84.776-23.7419 92.8349-31.8008 102.776-31.8008ZM30.276-34.8008C22.2679-34.8008 15.776-28.3089 15.776-20.3008C15.776-12.2927 22.2679-5.8008 30.276-5.8008C38.2841-5.8008 44.776-12.2927 44.776-20.3008C44.776-28.3089 38.2841-34.8008 30.276-34.8008ZM102.776-22.8008C97.8054-22.8008 93.776-18.7714 93.776-13.8008C93.776-8.83024 97.8054-4.8008 102.776-4.8008C107.747-4.8008 111.776-8.83024 111.776-13.8008C111.776-18.7714 107.747-22.8008 102.776-22.8008Z"/>
   <path class="monochrome-1 multicolor-1:systemGreenColor hierarchical-1:secondary SFSymbolsPreview28CD41" d="M42.0604-77.9473C49.3646-77.7398 56.6411-76.9491 63.8898-75.5751C65.0549-75.3539 65.9804-74.4671 66.2515-73.3126L71.3104-51.6973L106.495-45.2027C107.789-44.9638 108.777-43.9089 108.93-42.6015L109.908-34.2481C107.686-35.0249 105.298-35.4473 102.81-35.4473C90.9363-35.4473 81.3104-25.8214 81.3104-13.9473C81.3104-13.4622 81.3264-12.9808 81.3581-12.5036L57.6963-12.5036C58.3996-14.9817 58.776-17.5973 58.776-20.3008C58.776-36.0409 46.0161-48.8008 30.276-48.8008C23.2554-48.8008 16.8278-46.2623 11.8608-42.0531L11.4103-42.4084C10.6827-42.9832 10.4456-43.9828 10.8376-44.8231L12.9772-49.4109C13.5025-50.5372 14.5214-51.3553 15.7346-51.6249L18.3104-52.1973L21.61-75.059C21.7322-75.9021 22.3749-76.5754 23.2115-76.7364C28.4851-77.7508 34.768-78.1545 42.0604-77.9473ZM42.0604-72.4473C37.5194-72.4473 33.0449-72.2478 28.6369-71.8488C27.7151-71.7634 26.9721-71.0569 26.8408-70.1405L24.4657-53.2987C26.3529-53.6287 28.2943-53.8008 30.276-53.8008C44.7757-53.8008 57.1239-44.5889 61.7873-31.6982L68.8223-31.6973C69.3746-31.6973 69.8223-32.145 69.8223-32.6973C69.8223-32.768 69.8148-32.8385 69.7999-32.9077L61.8665-69.7749C61.6854-70.6243 60.9765-71.2593 60.1124-71.3467C53.9464-71.9695 48.6789-72.3279 44.3101-72.4221L43.1409-72.4413Z"/>
  </g>
 </g>
</svg>
